<?xml version="1.0" encoding="UTF-8" standalone="no"?>
<svg
   xmlns:dc="http://purl.org/dc/elements/1.1/"
   xmlns:cc="http://creativecommons.org/ns#"
   xmlns:rdf="http://www.w3.org/1999/02/22-rdf-syntax-ns#"
   xmlns:svg="http://www.w3.org/2000/svg"
   xmlns="http://www.w3.org/2000/svg"
   xmlns:sodipodi="http://sodipodi.sourceforge.net/DTD/sodipodi-0.dtd"
   xmlns:inkscape="http://www.inkscape.org/namespaces/inkscape"
   id="Layer_2"
   data-name="Layer 2"
   viewBox="0 0 756.78 203.77"
   version="1.1"
   sodipodi:docname="logo.svg"
   inkscape:version="0.92.4 (5da689c313, 2019-01-14)">
  <metadata
     id="metadata41">
    <rdf:RDF>
      <cc:Work
         rdf:about="">
        <dc:format>image/svg+xml</dc:format>
        <dc:type
           rdf:resource="http://purl.org/dc/dcmitype/StillImage" />
        <dc:title>Logo + Name + TM (without tagline) 2</dc:title>
      </cc:Work>
    </rdf:RDF>
  </metadata>
  <sodipodi:namedview
     pagecolor="#ffffff"
     bordercolor="#666666"
     borderopacity="1"
     objecttolerance="10"
     gridtolerance="10"
     guidetolerance="10"
     inkscape:pageopacity="0"
     inkscape:pageshadow="2"
     inkscape:window-width="1920"
     inkscape:window-height="1016"
     id="namedview39"
     showgrid="false"
     inkscape:snap-text-baseline="false"
     inkscape:zoom="0.55366154"
     inkscape:cx="-35.220073"
     inkscape:cy="246.37761"
     inkscape:window-x="0"
     inkscape:window-y="27"
     inkscape:window-maximized="1"
     inkscape:current-layer="Layer_2" />
  <defs
     id="defs4">
    <style
       id="style2">.cls-1{fill:#1e2831;}.cls-2{fill:#009444;}.cls-3{fill:#39b54a;}.cls-4{fill:#78c14a;}</style>
  </defs>
  <title
     id="title6">Logo + Name + TM (without tagline) 2</title>
  <polygon
     class="cls-1"
     points="199.62 93.9 232.65 93.9 232.65 82.24 199.62 82.24 199.62 66.42 236.88 66.42 236.88 54.77 186.74 54.77 186.74 121.94 237.35 121.94 237.35 110.29 199.62 110.29 199.62 93.9"
     id="polygon8"
     style="fill:#ffffff" />
  <path
     class="cls-1"
     d="M349.86,304.24a34.15,34.15,0,0,0,6.45-20.13v-.19a34.48,34.48,0,0,0-9.77-24.35,35.19,35.19,0,0,0-60.42,24.54v.19a34.48,34.48,0,0,0,9.78,24.35,36.26,36.26,0,0,0,45.22,4.15s10.18,9.23,19.64.59Zm-7-19.94A22,22,0,0,1,340,295.61s-10.33-9.82-19.61-.8l11.11,9.44a20.39,20.39,0,0,1-10.18,2.63c-12.7,0-21.73-10.29-21.74-22.78v-.19c0-12.49,8.85-22.59,21.55-22.59s21.73,10.29,21.74,22.78Z"
     transform="translate(-42.56 -195.75)"
     id="path10"
     style="fill:#ffffff" />
  <path
     class="cls-1"
     d="M409.48,289.1c-.08,11.91-5.95,17.63-15.91,17.7s-15.93-6.15-16-18.17V250.52H364.69V289.1c0,9.67,2.77,17.11,7.79,22.12s12.22,7.52,20.91,7.52,16-2.51,21.08-7.59,7.9-12.66,7.89-22.61v-38H409.48Z"
     transform="translate(-42.56 -195.75)"
     id="path12"
     style="fill:#ffffff" />
  <rect
     class="cls-1"
     x="391.76"
     y="54.77"
     width="12.88"
     height="67.18"
     id="rect14"
     style="fill:#ffffff" />
  <polygon
     class="cls-1"
     points="463.64 99.05 429.33 54.77 417.63 54.77 417.63 121.94 430.32 121.94 430.32 76.34 465.67 121.94 476.34 121.94 476.34 54.77 463.64 54.77 463.64 99.05"
     id="polygon16"
     style="fill:#ffffff" />
  <path
     class="cls-1"
     d="M566.37,250.05H554.78l-.17.39L525.23,317.7h13.29l6.78-15.91h30.28l6.68,15.91h13.67Zm-16.28,40.18,10.3-24,10.39,24Z"
     transform="translate(-42.56 -195.75)"
     id="path18"
     style="fill:#ffffff" />
  <path
     class="cls-1"
     d="M643.67,250.52V289.1c-.08,11.91-5.95,17.63-15.91,17.7s-15.93-6.16-16-18.17V250.52H598.88V289.1c0,9.67,2.77,17.11,7.79,22.12s12.22,7.52,20.9,7.52h0c8.73,0,16-2.51,21.07-7.59s7.9-12.66,7.9-22.61v-38Z"
     transform="translate(-42.56 -195.75)"
     id="path20"
     style="fill:#ffffff" />
  <polygon
     class="cls-1"
     points="620.58 66.8 641.47 66.8 641.47 121.94 654.45 121.94 654.45 66.8 675.34 66.8 675.34 54.77 620.58 54.77 620.58 66.8"
     id="polygon22"
     style="fill:#ffffff" />
  <path
     class="cls-1"
     d="M772,298.13c0-11.3-7.71-16.59-21.67-19.92-6.28-1.5-10.14-2.82-12.33-4.31a5.76,5.76,0,0,1-2.79-5.41v-.19c0-3.87,3.49-7.12,10.08-7.16,5.85,0,11.63,2.28,17.49,6.65l.54.4,7-9.8-.48-.38a37.2,37.2,0,0,0-24.31-8.43c-6.67,0-12.45,2-16.57,5.47a18.28,18.28,0,0,0-6.57,14.29v.19c0,12.54,8.41,17,22.42,20.3,6.1,1.4,9.75,2.75,11.8,4.22a5.69,5.69,0,0,1,2.57,5.21v.19c0,4.51-4,7.59-11,7.62-8,0-14.12-3-20.37-8.4l-.5-.43-7.8,9.27.47.42a41.23,41.23,0,0,0,27.92,10.7c7,0,13.06-1.86,17.36-5.35a18.61,18.61,0,0,0,6.82-15Z"
     transform="translate(-42.56 -195.75)"
     id="path24"
     style="fill:#ffffff" />
  <path
     class="cls-2"
     d="M184.94,337.84A88.68,88.68,0,0,1,168.08,351l43.27,43.27a17.78,17.78,0,1,0,25.15-25.15l-42.28-42.28A87.79,87.79,0,0,1,184.94,337.84Z"
     transform="translate(-42.56 -195.75)"
     id="path26" />
  <path
     class="cls-2"
     d="M159.13,204.81a78.44,78.44,0,0,0-36.63-9.06h-.21A80.69,80.69,0,0,0,109,196.86a79.74,79.74,0,0,0-55.47,119l-7.85,5,28,17.79V303.09L66,308a64.87,64.87,0,0,1,15.76-83.35,65.05,65.05,0,0,1,40.5-14.17h.17A65,65,0,0,1,162.8,326.33V240.74H141.18v31.77h0v67.83h0v12.22h0v.11a79.6,79.6,0,0,0,60.66-72.06h0c.1-1.69.17-3.4.17-5.11A79.52,79.52,0,0,0,159.13,204.81Z"
     transform="translate(-42.56 -195.75)"
     id="path28" />
  <path
     class="cls-3"
     d="M111.48,354.17a79.83,79.83,0,0,0,10.65.73h.33a79.82,79.82,0,0,0,10.65-.73V257.24H111.48Z"
     transform="translate(-42.56 -195.75)"
     id="path30" />
  <path
     class="cls-4"
     d="M81.79,343.85a78.75,78.75,0,0,0,21.62,8.82V272.51H81.79Z"
     transform="translate(-42.56 -195.75)"
     id="path32" />
  <path
     class="cls-1"
     d="M781.48,251.72H777.6v-1.2h9.07v1.2H782.8v10.34h-1.32Z"
     transform="translate(-42.56 -195.75)"
     id="path34" />
  <path
     class="cls-1"
     d="M788.29,250.52h1.32l4.2,6.3,4.2-6.3h1.32v11.54H798v-9.35l-4.2,6.18h-.07l-4.2-6.17v9.33h-1.27Z"
     transform="translate(-42.56 -195.75)"
     id="path36" />
</svg>
